<svg xmlns="http://www.w3.org/2000/svg" viewBox="0 0 105.9 105.9"><defs><style>.cls-1{fill:#fefefe;fill-rule:evenodd;}</style></defs><title>Asset 7</title><g id="Layer_2" data-name="Layer 2"><g id="Capa_1" data-name="Capa 1"><rect width="105.9" height="105.9"/><path class="cls-1" d="M48.13,73.79C46.6,69.67,41.43,66.1,38,64.46,34.87,62.94,34,61.9,32,64A81.38,81.38,0,0,1,0,84.56V105.9H17.15c13.76-8.65,26.73-22.92,31-32.11m57.77,31.37a22.19,22.19,0,0,1-8.13-13.41c-2.7-12.15,2.93-31.6,8.13-46.8V0h-3.19C79.58,3.2,57.32,32.53,46.63,48.32,34.55,41.5,15.2,37.21,0,39.12v19C13.51,54.28,32.84,56,47.65,62.61a50.54,50.54,0,0,1,26,25.65c.88,2,1.85,4.32,2.66,6.28a26.1,26.1,0,0,0,9.88,11.36H105.9ZM76.5,72.32A60.11,60.11,0,0,0,61.1,57.68c4.15-9,31.53-44.72,43.06-46.63C96.64,23.59,83.45,49.3,76.5,72.32Z"/></g></g></svg>