<svg xmlns="http://www.w3.org/2000/svg" viewBox="0 0 105.9 105.9"><defs><style>.cls-1{fill:#fefefe;fill-rule:evenodd;}</style></defs><title>Asset 8</title><g id="Layer_2" data-name="Layer 2"><g id="Capa_1" data-name="Capa 1"><rect width="105.9" height="105.9"/><path class="cls-1" d="M46.35,65.89c-1.15-3.09-5-5.77-7.58-7-2.37-1.14-3.06-1.92-4.51-.37C26.42,66.9,13.59,74.73,0,76.35V94.66a30.85,30.85,0,0,0,7.65.9c14.16-.16,33.88-19.26,38.7-29.67M87.67,92.8c1.48-.43,2.71-1.19,3-2.66a16.48,16.48,0,0,1-7.11-10.78c-2.89-13,6.93-37.13,10.4-47.29l5.22-12.19c.49-1.1,1.47-2.82,1.91-4.07a3.56,3.56,0,0,0-2.4-4.33,33.09,33.09,0,0,0-10.41-1.07C70.6,12.07,53.4,34.7,45.22,46.78,33.07,39.92,11.11,36.47,0,43.08V58.34A2.1,2.1,0,0,0,2.32,58L5.2,56.13C15,50.91,32.87,51.64,46,57.5a37.91,37.91,0,0,1,19.5,19.24c.67,1.52,1.39,3.25,2,4.72C70.66,89.12,80.73,94.79,87.67,92.8Zm-20-28a45.15,45.15,0,0,0-11.55-11c3.11-6.75,23.65-33.54,32.31-35C82.74,28.23,72.84,47.52,67.63,64.79Z"/></g></g></svg>