<svg xmlns="http://www.w3.org/2000/svg" viewBox="0 0 355.04 71.76"><defs><style>.cls-1{fill-rule:evenodd;}</style></defs><title>Asset 5</title><g id="Layer_2" data-name="Layer 2"><g id="Capa_1" data-name="Capa 1"><path class="cls-1" d="M135,54.19c-2,2.39-4.93,4.74-7.4,3.15s-2.14-5.44-1.75-7.38c1.46-7.27,8.17-19.18,10.92-24,3.49.33,7,.72,11.22.87-2.19,5.39-4.67,10.41-6.79,15.91a59.25,59.25,0,0,1-2.38,5.48A31.61,31.61,0,0,1,135,54.19m51.79-5.4a24.46,24.46,0,0,1,3.9-8.8c.94-1.38,3.66-4.87,6-3.21,1.72,1.21.18,4.11-.46,5.22C194.64,44.8,190.72,48.89,186.78,48.79ZM45.09,51.37c-.78-2.12-3.45-4-5.21-4.81s-2.09-1.32-3.09-.25C29.53,54.06,16.05,61.14,3.45,58,0,57.13-.11,57.06,0,59.12,1.4,67.48,11.22,71.88,18.5,71.76,28.23,71.65,41.78,58.52,45.09,51.37Zm28.4,18.49A2.59,2.59,0,0,0,75.57,68a11.31,11.31,0,0,1-4.89-7.4c-2-8.93,4.77-25.51,7.15-32.5l3.59-8.37c.34-.76,1-1.94,1.31-2.8a2.44,2.44,0,0,0-1.65-3,22.4,22.4,0,0,0-7.15-.74c-12.17,1.14-24,16.69-29.61,25-9.18-5.19-26.52-7.53-33.12-1a3.93,3.93,0,0,0-.9,1.8s1.4,9.25,4.54,6.86l2-1.26c6.74-3.59,19-3.09,28,.94A26.06,26.06,0,0,1,58.25,58.83c.45,1,1,2.23,1.37,3.24C61.8,67.34,68.72,71.23,73.49,69.86ZM59.72,50.62a30.92,30.92,0,0,0-7.94-7.55C53.92,38.43,68,20,74,19,70.1,25.49,63.3,38.75,59.72,50.62ZM276.65,57c-1.67-2.19,3.93-13.86,4.77-15.83s3.28-5.9,2-7.9c-.88-1.21-3.23-1.32-4.88-1.41a48.23,48.23,0,0,0-5.53.35c-.27.62.08,1.27-.1,2.1-1,5-5.11,16.35-8.51,20.21-1.65,1.86-3.78,3.59-5.76,3.33-3.48-.47-3.35-5.66-3-7.71a47.58,47.58,0,0,1,3.07-8.77,131.07,131.07,0,0,1,7-14.15c1.4-.12,9.13.84,10.88,1.05a16.49,16.49,0,0,0,7.51-.53c4.87-1.85,4-8.67-1-9.67-3.69-.63-6,1.44-6.35,4.79-.76.34-4.71-.16-8.33-.59a29.61,29.61,0,0,0,2.57-5.44c.77-2.4.38-5.18-3.35-6-1.11-.23-5.71-.74-5.71.5a16.41,16.41,0,0,1-.22,3,24.06,24.06,0,0,1-2.25,6.25c-3.63-.33-8-.93-12.08-1.32-8-.93-16.61-1-20.11,5.48-.22.39-1.19,3.09,0,3.62,5.94-2.91,10.55-3.44,17.68-3.51a74.34,74.34,0,0,1,11.88.79c-2.59,5.64-5.74,11.23-8.48,16.83a39.54,39.54,0,0,1-4.08,7.82C243.68,51.65,237,61.46,236,55c-.2-2,2.18-7.39,4.13-11.36,1.2-2.44,4.82-7.56.21-10a15,15,0,0,0-7.19-1.47c-3.61.32-11.34,6.43-13.42,8.85.87-3.74,7.34-10.83-7.8-8.69.53,4.14-.7,7-2,10.72a24.84,24.84,0,0,1-6.08,10c-3.55,3.46-8.51,6.6-14.35,5.52a4.79,4.79,0,0,1-3.44-5.25c7,0,12.54-2.39,15.92-7.84,2.27-3.64,3.22-8.3-.09-11.87-4.38-4.71-13.61-2-17.09,2.14s-4.62,6.76-7.16,13.66c-.83,2.24-4.33,7-6.34,7.76-1.76.62-2.82-.48-3.09-2.1,0-4.64,4.19-11.05,6.19-15.43a5,5,0,0,0,0-4.35c-1.35-2.45-5.61-3-7.85-3.14-5.8-.49-14.47,8.16-17,12.13.61-2.83,8-19.16,9-21.13,1.79-3.55,3.55-6.8,5-9.18,1.12-1.75,3.32-4.91,5.64-5.85,2.73-1.1,5,.34,5.06,2.53.05,3.41-7.08,7.91-10.21,9.19a10,10,0,0,0-1.6.76A7.87,7.87,0,0,0,160,27.35c8.28-.35,20.05-8.55,21.13-15.5,1.51-9.73-8.81-14.57-16.28-10.27-7.78,4.48-10.62,12-14.11,19.91-1.68.17-10.11-.39-11.56-.59a33.84,33.84,0,0,0,1.76-3.4c.77-1.76,1.2-4.7-1.26-6.08-2.09-1.17-5.44-.8-7.63-.41a10.64,10.64,0,0,1,0,3.33A17.12,17.12,0,0,1,130,19.29a.58.58,0,0,1-.53.28,14.59,14.59,0,0,1-1.7-.15c-9.44-1.13-23.4-4.33-28.13,4.42-.21.4-1.19,3.1,0,3.62,7.46-3.66,12.76-4,22.22-3.31a33.6,33.6,0,0,1,5.6.66c-.1,1-4.16,8.1-4.89,9.63l-2.08,4.3c-2,3.7-3.78,7.55-6,11.09-2,2.61-5.83,7.36-7.52,7.46-2,.11-2.13-1-2-2.74.14-3.94,5.84-15.32,7.2-18.69A2.11,2.11,0,0,0,112,34c-.75-1.1-6.57-2.31-7.72-.9a19.91,19.91,0,0,0-1,1.76c-3.46,6.5-5.22,12.3-9.69,17.87-2.13,2.66-5.12,5.84-6,3.7A6.62,6.62,0,0,1,88,53.26c1.51-5.82,4.26-11.23,6.74-16.54.56-1.21,1.07-3-.78-4.07s-6.4-.6-8.44-.54c-.87.06-1.31.11-1.33.62A10.82,10.82,0,0,1,83.57,37c-2.07,6.59-5.6,12.71-5.9,20.1-.13,3.24,1.67,8,5.73,8.46,4.8.59,10.53-7,12.4-10.25-.23,3.61.54,8.66,5,9.88,7.46,2,13.6-9.44,14.33-10.14-1.18,7.63,6.64,12.25,13.65,9.76a23.47,23.47,0,0,0,9.67-7.21c.55,2.54,1.5,5.76,3.93,7.6a2.21,2.21,0,0,0,2.88,0c3-5.86,10.31-21.45,18.78-24.54,0,1.46-4.3,6.94-5,15.27-.26,3.14.19,9.66,4.95,10,4.45.32,11.78-6.71,13.94-9.65,1,4.3,3.88,8.06,8.56,9.08,11.05,2.26,18.57-6.76,19.31-7.26.08.58.38,4.38,2.86,6.35a5.93,5.93,0,0,0,4,1.24,61.28,61.28,0,0,1,10.4-18.32c2.13-2.39,6.18-6.59,8.85-6.82,0,.87-1.23,2.62-1.65,3.38-1.82,3.27-4.11,10.47-3.26,16,.57,3.73,2.33,5.9,4.84,6.1,4.86.38,11.19-6.7,13.18-9.58a8.74,8.74,0,0,0,7.76,9c4.78.71,11.23-3.11,13.78-6.36,1.23,3.89,3,7.4,7.39,6.61,3.77-.69,10.91-7.38,13.33-10.05a15.36,15.36,0,0,0,3.11,8.16,4.76,4.76,0,0,0,3.82,1.81A62,62,0,0,1,301.61,53c4.59,3.48,14.86,11.26,15.09,11.4,7.75,5.1,15.93,8,24.9,7.2,5.31-.5,10.07-2.56,12.65-6.91.78-1.3,1.18-2.75.28-4a.87.87,0,0,0-1.09-.41c-9.06,4.62-20.41,3-30.58-2.41a129.36,129.36,0,0,1-14-8.55c-.74-.52-1.48-1-2.23-1.55,6.28-5.1,19-12.94,19.8-16.52a10.37,10.37,0,0,0-.27-5.33A4.78,4.78,0,0,0,323.49,23c-1.15-.51-1.11.58-1.2.86-.86,4.06-17.75,13.2-23,18.72,0-2.68,8.33-17.6,11.3-23,1.13-2.07,1.88-4.25.49-6.27a6.09,6.09,0,0,0-3.78-2.49c-1.06-.24-3.94-.5-4.47.37.54,3.5-3.1,10.42-4.54,13.54-3.82,8.25-8.95,18.87-13.07,25C282.46,53.76,278.15,58.18,276.65,57Z"/></g></g></svg>